<?xml version="1.0" encoding="UTF-8" standalone="no"?>
<!-- Created with Inkscape (http://www.inkscape.org/) -->

<svg
   xmlns:dc="http://purl.org/dc/elements/1.1/"
   xmlns:cc="http://creativecommons.org/ns#"
   xmlns:rdf="http://www.w3.org/1999/02/22-rdf-syntax-ns#"
   xmlns:svg="http://www.w3.org/2000/svg"
   xmlns="http://www.w3.org/2000/svg"
   xmlns:sodipodi="http://sodipodi.sourceforge.net/DTD/sodipodi-0.dtd"
   xmlns:inkscape="http://www.inkscape.org/namespaces/inkscape"
   version="1.1"
   id="svg23"
   width="400"
   height="400"
   viewBox="0 0 400 400"
   sodipodi:docname="vodei administrador.svg"
   inkscape:version="0.92.5 (2060ec1f9f, 2020-04-08)">
  <metadata
     id="metadata29">
    <rdf:RDF>
      <cc:Work
         rdf:about="">
        <dc:format>image/svg+xml</dc:format>
        <dc:type
           rdf:resource="http://purl.org/dc/dcmitype/StillImage" />
        <dc:title />
      </cc:Work>
    </rdf:RDF>
  </metadata>
  <defs
     id="defs27" />
  <sodipodi:namedview
     pagecolor="#ffffff"
     bordercolor="#666666"
     borderopacity="1"
     objecttolerance="10"
     gridtolerance="10"
     guidetolerance="10"
     inkscape:pageopacity="0"
     inkscape:pageshadow="2"
     inkscape:window-width="1366"
     inkscape:window-height="745"
     id="namedview25"
     showgrid="false"
     inkscape:zoom="1.18"
     inkscape:cx="358.31691"
     inkscape:cy="111.92523"
     inkscape:window-x="-8"
     inkscape:window-y="-8"
     inkscape:window-maximized="1"
     inkscape:current-layer="svg23" />
  <path
     style="fill:#ffffff"
     d="m 202.81805,383.20726 c -3.72663,-3.2699 -14.83591,-13.74378 -24.6873,-23.2753 l -17.91162,-17.33002 4.57806,-2.42865 4.57806,-2.42866 17.63114,16.95396 c 9.69713,9.32467 19.52263,18.59366 21.83445,20.59774 l 4.2033,3.6438 67.20676,-70.6438 c 36.96371,-38.85408 69.58831,-72.96899 72.49911,-75.8109 4.34029,-4.23756 32.79237,-22.28733 32.79237,-20.80322 0,0.94719 -164.30521,173.18468 -167.15068,175.22033 -5.12693,3.66781 -7.9439,2.99941 -15.57365,-3.69528 z M 105.54237,322.92063 V 290.57537 L 60.561926,247.72664 C 13.163227,202.57427 12.947517,202.3279 15.394549,196.14213 15.936223,194.77286 36.434294,172.60629 60.945818,146.8831 l 44.566402,-46.76944 0.26508,-28.803341 0.26507,-28.803337 132.50001,77.383058 c 72.875,42.56068 133.04456,77.70128 133.71013,78.09022 0.71187,0.41599 -52.19667,31.8911 -128.5,76.44421 -71.34058,41.65537 -131.62264,76.88553 -133.96014,78.28924 l -4.25,2.55219 z m -0.23872,-167.94506 -0.26128,-40.02779 -39.760741,41.85238 C 43.41322,179.81897 25.4712,199.04724 25.410473,199.52964 c -0.06073,0.48241 17.831609,17.98012 39.760744,38.88381 l 39.871153,38.00671 0.26128,-40.7084 c 0.1437,-22.38962 0.1437,-58.72091 0,-80.73619 z M 365.86731,174.39888 347.69224,163.65254 271.99622,91.379529 196.30019,19.10652 184.17789,31.879531 c -6.66726,7.025157 -14.4094,15.194051 -17.20475,18.153099 l -5.08247,5.380087 -4.16645,-2.380087 c -2.29154,-1.309048 -4.16461,-2.605087 -4.16236,-2.880087 0.009,-1.0541 36.03709,-38.462248 38.20046,-39.663298 3.88602,-2.1574284 7.4475,-1.5636544 11.47604,1.913298 2.07107,1.7875 42.92423,40.550561 90.7848,86.140136 47.86057,45.589571 87.90672,83.727071 88.99144,84.750001 1.08472,1.02292 1.75972,1.85821 1.5,1.8562 -0.25972,-0.002 -8.651,-4.83951 -18.64729,-10.75 z"
     id="path33"
     inkscape:connector-curvature="0" />
</svg>
