<svg id="Capa_1" data-name="Capa 1" xmlns="http://www.w3.org/2000/svg" viewBox="0 0 380.19 313.19"><defs><style>.cls-1{fill:#9b9800;}.cls-2{fill:#fefefe;}.cls-3{fill:#eee;}.cls-4{fill:#f8f8f8;}</style></defs><title>vodei administrador</title><path class="cls-1" d="M236,398h-1a6.21,6.21,0,0,1-2.24-4.81c-.12-2.17-.15-4.33-.15-6.5q0-145.19,0-290.39c0-3.84-1.17-8.11,2.34-11.3h1c12.13,3.2,22,10.83,32.6,16.94,35.35,20.34,70.46,41.12,105.71,61.63q36,21,72,42.08c17.35,10.22,34.78,20.31,52.18,30.46,2.28,1.33,5.12,2.39,4.95,5.63-.16,2.89-2.79,3.9-4.95,5.15q-36.69,21.35-73.3,42.81-50.68,29.58-101.39,59.13-35.81,20.9-71.53,41.91A67.42,67.42,0,0,1,236,398Z" transform="translate(-130.93 -84.9)"/><path class="cls-2" d="M236,398c.95-1.74,2.84-2.18,4.36-3.08q128.39-75,256.78-150c1.72-1,3.4-2.05,5.22-3.15-1.36-2-3.47-2.66-5.24-3.69q-128.37-75-256.76-150c-1.53-.89-3.42-1.33-4.36-3.07q135.5,0,271-.1c3.42,0,4.11.67,4.1,4.1-.15,46.33-.1,92.67-.1,139-3.2,0-3-2.48-3.28-4.53-2.41-17.65-7.23-34.54-15.81-50.24q-31.08-56.89-94.12-72.08a154.6,154.6,0,0,0-37.14-3.85c-27.8.14-55.59.06-83.92,0,5.34,3,10.21,5.89,15.07,8.74,2.71,1.59,5.74,1.56,8.75,1.56,21.66,0,43.33-.34,65,.08,51.37,1,90,24.09,116.12,68.16,7.48,12.6,12.06,26.31,14.65,40.67.81,4.5,3.38,7.1,7.13,8.91,3.43,1.66,6.21,3.86,7.57,7.54v17c-2.21,3.61-4.94,6.6-9,8.32-3.83,1.64-5.54,4.77-6.41,8.84a129,129,0,0,1-27.55,57c-22.5,26.7-51.05,42.86-85.84,47.15-20.88,2.57-41.93,1.14-62.87.85-13.6-.19-26.22,1-36.34,10.53,29.79-.05,60.2,1,90.5-.33,34-1.54,63.92-14.36,89.17-37.72,25.51-23.61,39.89-52.79,44.9-86.9.34-2.34,0-5.15,3.4-5.71,0,47.28-.06,94.55.12,141.83,0,3.82-1.05,4.25-4.44,4.25Q371.34,397.93,236,398Z" transform="translate(-130.93 -84.9)"/><path class="cls-2" d="M235,85V398c-33.43,0-66.87-.06-100.3.09-3.22,0-3.78-.86-3.77-3.88q.15-71.1.07-142.21c3.19,0,3,2.45,3.26,4.48,2.38,17.47,7.22,34.14,15.52,49.79,15.8,29.81,39.31,51.21,70.05,64.79,1.64.72,3.94,3,5.57-.07,1.52-2.87-.1-8.32-2.92-9.63A127.39,127.39,0,0,1,205,351.65c-34.52-23.15-55.42-54.83-60.42-96.52a127.61,127.61,0,0,1,12.2-72.81c13.89-28.32,35.55-49.12,64-62.77,3.26-1.57,5-3.46,4.89-7.18-.13-4.74-.95-5.56-5.29-3.7a141.06,141.06,0,0,0-24.51,13.4c-27.63,19-46.26,44.55-56.35,76.45A176.57,176.57,0,0,0,135.26,217c-.52,2.56-.5,5.36-2.84,7.22A1.25,1.25,0,0,1,131,224q0-67.6-.07-135.22c0-3,.57-3.88,3.78-3.87C168.14,85.05,201.57,85,235,85Z" transform="translate(-130.93 -84.9)"/><path class="cls-3" d="M132,224a139.27,139.27,0,0,1,22.11-62.51C171,135.44,194,116.75,222.79,105c3.77-1.54,5.74-1.44,5.22,3.29a9.51,9.51,0,0,0,0,2.5c1,6-1.6,8.76-7.19,11.55-41.2,20.6-67,53.53-73.42,99.36-6.52,46.19,9,85.24,43.52,116.54A112,112,0,0,0,223.72,359c3.72,1.52,4.37,3.95,4.31,7.41-.19,11.84,1.32,11.37-10,6.52a135.92,135.92,0,0,1-44.76-30.41c-23.45-24.33-38-53.17-41.31-87.19A18.81,18.81,0,0,0,131,252V230C132.29,228.15,130.72,225.84,132,224Z" transform="translate(-130.93 -84.9)"/><path class="cls-3" d="M511,233c-11.78-4.91-16.66-13.72-19.81-26.33-9.09-36.31-31.16-63.41-64.29-81.26A126,126,0,0,0,366.14,110c-22.32,0-44.64,0-66.95.06A19.33,19.33,0,0,1,288.37,107c-5.9-3.7-12-7.11-18-10.67,1-2,2.47-1.26,3.59-1.26,33-.05,66-.79,98.92.19,30.23.9,57.68,11.27,81.63,29.92,31.27,24.34,49.37,56.48,55.37,95.56.38,2.43-.4,5,1.15,7.29Z" transform="translate(-130.93 -84.9)"/><path class="cls-3" d="M511,252c-1.79,6.57-2.1,13.39-3.64,20a143.24,143.24,0,0,1-34,65.22c-23.57,26-52.78,41.08-87.23,46.38a107.09,107.09,0,0,1-15.89,1.3c-30,.12-60,.06-90,.06h-4.45l-.51-1.05c5.1-3.07,10.33-5.93,15.25-9.25,5.63-3.82,11.62-4.93,18.38-4.82,19.65.33,39.33.45,59,.05q51.14-1.05,88.24-36.55C476.4,314,488.77,290.32,494,262.84a6.17,6.17,0,0,1,3.38-4.55c4.6-2.69,9.11-5.52,13.66-8.29Z" transform="translate(-130.93 -84.9)"/><path class="cls-4" d="M132,224c-.07,2,.37,4.17-1,6v-6Z" transform="translate(-130.93 -84.9)"/></svg>