<?xml version="1.0" encoding="UTF-8" standalone="no"?>
<!-- Created with Inkscape (http://www.inkscape.org/) -->

<svg
   xmlns:dc="http://purl.org/dc/elements/1.1/"
   xmlns:cc="http://creativecommons.org/ns#"
   xmlns:rdf="http://www.w3.org/1999/02/22-rdf-syntax-ns#"
   xmlns:svg="http://www.w3.org/2000/svg"
   xmlns="http://www.w3.org/2000/svg"
   xmlns:sodipodi="http://sodipodi.sourceforge.net/DTD/sodipodi-0.dtd"
   xmlns:inkscape="http://www.inkscape.org/namespaces/inkscape"
   version="1.1"
   id="svg2"
   width="361"
   height="360"
   viewBox="0 0 361 360"
   sodipodi:docname="vodei.svg"
   inkscape:version="0.92.5 (2060ec1f9f, 2020-04-08)">
  <metadata
     id="metadata8">
    <rdf:RDF>
      <cc:Work
         rdf:about="">
        <dc:format>image/svg+xml</dc:format>
        <dc:type
           rdf:resource="http://purl.org/dc/dcmitype/StillImage" />
        <dc:title></dc:title>
      </cc:Work>
    </rdf:RDF>
  </metadata>
  <defs
     id="defs6" />
  <sodipodi:namedview
     pagecolor="#ffffff"
     bordercolor="#666666"
     borderopacity="1"
     objecttolerance="10"
     gridtolerance="10"
     guidetolerance="10"
     inkscape:pageopacity="0"
     inkscape:pageshadow="2"
     inkscape:window-width="1366"
     inkscape:window-height="745"
     id="namedview4"
     showgrid="false"
     inkscape:zoom="1.3111111"
     inkscape:cx="226.39877"
     inkscape:cy="168.75444"
     inkscape:window-x="-8"
     inkscape:window-y="-8"
     inkscape:window-maximized="1"
     inkscape:current-layer="svg2" />
  <path
     style="fill:#000000"
     d="m 164.57933,358.8855 c -5.20299,-0.46171 -13.07799,-1.54875 -17.5,-2.41565 -16.73814,-3.28137 -45.15672,-13.41339 -42.97077,-15.32027 0.88897,-0.77547 24.74462,-14.71517 28.94192,-16.91178 1.52041,-0.79569 4.14613,-0.48241 10.76053,1.28387 4.81215,1.28501 13.07201,2.88048 18.35525,3.54548 12.0427,1.51583 38.04516,0.65318 48.37306,-1.6048 57.37712,-12.54432 100.61933,-52.94797 116.07973,-108.45991 l 2.64648,-9.50244 7.3869,-4.36763 c 4.06279,-2.4022 11.16419,-6.59482 15.78089,-9.31693 l 8.39399,-4.9493 -0.70222,7.74934 c -2.87654,31.74365 -16.13958,64.89843 -36.36321,90.90025 -8.48284,10.90653 -25.03491,27.20536 -35.22256,34.68369 -27.06281,19.86567 -58.7986,31.77096 -92.59417,34.73555 -13.31826,1.1683 -17.72094,1.16135 -31.36582,-0.0495 z M 93.539318,180.58333 C 93.539318,95.0125 93.736118,25 93.976658,25 94.385338,25 351.80623,175.15951 357.77866,178.88176 l 2.73934,1.70727 -132.59202,77.45548 C 155.00037,300.64503 94.930158,335.65 94.436638,335.83333 c -0.52734,0.1959 -0.89732,-63.81586 -0.89732,-155.25 z M 77.089388,326.64238 C 65.821618,318.90926 47.355248,301.2432 38.280808,289.51573 -10.43473,226.55755 -11.487674,137.77864 35.722278,73.793671 46.688888,58.930316 64.858608,41.540051 80.289318,31.13849 l 6.25,-4.213012 v 17.91514 17.91514 l -6.58093,5.777738 c -13.03891,11.447529 -27.65861,31.165044 -35.47523,47.845264 -18.69535,39.89485 -18.69535,87.34763 0,127.24248 7.77355,16.58831 21.69574,35.44191 35.10782,47.5434 l 7.02147,6.33536 -0.28657,17.64238 -0.28656,17.64238 z M 344.169,160.11278 l -14.87032,-8.78324 -2.34414,-9.04927 C 322.82862,126.35265 317.05732,113.31711 307.79282,99 285.51286,64.56915 251.90326,41.599201 210.53932,32.533625 c -10.12492,-2.21904 -37.03112,-3.116042 -48.5,-1.616897 -4.95,0.647035 -13.3193,2.304383 -18.59844,3.682997 l -9.59844,2.50657 -15.7805,-9.21982 -15.7805,-9.219821 4.71632,-2.3969 c 2.59397,-1.318295 9.99349,-4.161303 16.44338,-6.317796 38.17292,-12.7629623 77.05841,-12.7512703 115.30005,0.034667 61.06414,20.416549 107.30351,73.279528 119.24619,136.327725 1.99565,10.53551 3.03806,22.69796 1.93987,22.63366 -0.48836,-0.0286 -7.57957,-4.00444 -15.75825,-8.83523 z"
     id="path12"
     inkscape:connector-curvature="0" />
</svg>
